<svg xmlns="http://www.w3.org/2000/svg" xmlns:xlink="http://www.w3.org/1999/xlink" width="40" zoomAndPan="magnify" viewBox="0 0 30 30.000001" height="40" preserveAspectRatio="xMidYMid meet" version="1.0"><defs><g/><clipPath id="3598df1268"><path d="M 4.472656 1.859375 L 27.710938 1.859375 L 27.710938 25.097656 L 4.472656 25.097656 Z M 4.472656 1.859375 " clip-rule="nonzero"/></clipPath><clipPath id="fe7a2609e6"><path d="M 16.089844 1.859375 C 9.675781 1.859375 4.472656 7.0625 4.472656 13.476562 C 4.472656 19.894531 9.675781 25.097656 16.089844 25.097656 C 22.507812 25.097656 27.710938 19.894531 27.710938 13.476562 C 27.710938 7.0625 22.507812 1.859375 16.089844 1.859375 Z M 16.089844 1.859375 " clip-rule="nonzero"/></clipPath><clipPath id="b02ad91ef6"><path d="M 2.722656 12.238281 L 7.800781 12.238281 L 7.800781 26 L 2.722656 26 Z M 2.722656 12.238281 " clip-rule="nonzero"/></clipPath></defs><g clip-path="url(#3598df1268)"><g clip-path="url(#fe7a2609e6)"><path fill="#eeb30d" d="M 4.472656 1.859375 L 27.710938 1.859375 L 27.710938 25.097656 L 4.472656 25.097656 Z M 4.472656 1.859375 " fill-opacity="1" fill-rule="nonzero"/></g></g><g clip-path="url(#b02ad91ef6)"><path fill="#393536" d="M 2.726562 19.753906 L 2.726562 18.085938 C 3.074219 18.066406 3.339844 18.015625 3.515625 17.933594 C 3.691406 17.847656 3.84375 17.707031 3.972656 17.511719 C 4.101562 17.3125 4.191406 17.066406 4.238281 16.769531 C 4.277344 16.546875 4.296875 16.160156 4.296875 15.609375 C 4.296875 14.710938 4.339844 14.082031 4.425781 13.730469 C 4.511719 13.375 4.664062 13.089844 4.890625 12.875 C 5.113281 12.660156 5.441406 12.488281 5.871094 12.363281 C 6.164062 12.28125 6.621094 12.238281 7.246094 12.238281 L 7.628906 12.238281 L 7.628906 13.898438 C 7.097656 13.898438 6.757812 13.929688 6.605469 13.988281 C 6.457031 14.042969 6.34375 14.132812 6.273438 14.25 C 6.203125 14.367188 6.164062 14.570312 6.164062 14.859375 C 6.164062 15.152344 6.144531 15.703125 6.101562 16.519531 C 6.078125 16.980469 6.015625 17.351562 5.914062 17.636719 C 5.816406 17.921875 5.6875 18.15625 5.53125 18.339844 C 5.375 18.527344 5.140625 18.71875 4.820312 18.917969 C 5.101562 19.078125 5.332031 19.261719 5.511719 19.472656 C 5.6875 19.683594 5.828125 19.9375 5.921875 20.238281 C 6.019531 20.539062 6.078125 20.945312 6.109375 21.449219 C 6.140625 22.21875 6.160156 22.710938 6.160156 22.921875 C 6.160156 23.230469 6.195312 23.441406 6.273438 23.5625 C 6.351562 23.683594 6.464844 23.773438 6.621094 23.835938 C 6.777344 23.898438 7.113281 23.929688 7.628906 23.929688 L 7.628906 25.597656 L 7.246094 25.597656 C 6.601562 25.597656 6.109375 25.550781 5.765625 25.449219 C 5.421875 25.351562 5.128906 25.183594 4.894531 24.953125 C 4.65625 24.722656 4.5 24.433594 4.417969 24.09375 C 4.335938 23.753906 4.296875 23.21875 4.296875 22.484375 C 4.296875 21.632812 4.257812 21.078125 4.179688 20.824219 C 4.074219 20.453125 3.917969 20.1875 3.703125 20.027344 C 3.492188 19.867188 3.167969 19.777344 2.726562 19.753906 " fill-opacity="1" fill-rule="nonzero"/></g><g fill="#000000" fill-opacity="1"><g transform="translate(7.950413, 17.574683)"><g><path d="M 1.75 -8.28125 C 1.75 -8.59375 1.734375 -8.84375 1.703125 -9.03125 C 1.671875 -9.226562 1.609375 -9.378906 1.515625 -9.484375 C 1.429688 -9.597656 1.304688 -9.675781 1.140625 -9.71875 C 0.972656 -9.757812 0.75 -9.789062 0.46875 -9.8125 L 0.46875 -10.34375 L 5 -10.34375 L 5 -9.8125 C 4.71875 -9.800781 4.492188 -9.769531 4.328125 -9.71875 C 4.160156 -9.675781 4.03125 -9.597656 3.9375 -9.484375 C 3.84375 -9.367188 3.78125 -9.207031 3.75 -9 C 3.726562 -8.789062 3.71875 -8.519531 3.71875 -8.1875 L 3.71875 0.03125 C 3.71875 1.15625 3.429688 2.015625 2.859375 2.609375 C 2.285156 3.203125 1.429688 3.5 0.296875 3.5 C -0.515625 3.5 -1.140625 3.359375 -1.578125 3.078125 C -2.023438 2.796875 -2.25 2.441406 -2.25 2.015625 C -2.25 1.753906 -2.164062 1.550781 -2 1.40625 C -1.84375 1.269531 -1.640625 1.203125 -1.390625 1.203125 C -1.191406 1.203125 -1.03125 1.253906 -0.90625 1.359375 C -0.78125 1.472656 -0.628906 1.675781 -0.453125 1.96875 C -0.273438 2.269531 -0.117188 2.46875 0.015625 2.5625 C 0.160156 2.664062 0.335938 2.71875 0.546875 2.71875 C 0.929688 2.71875 1.226562 2.503906 1.4375 2.078125 C 1.644531 1.660156 1.75 1.070312 1.75 0.3125 Z M 1.75 -8.28125 "/></g></g></g><g fill="#000000" fill-opacity="1"><g transform="translate(13.421141, 17.574683)"><g><path d="M 9 0.140625 L 3.046875 -8.34375 L 3 -8.34375 L 3 -2.5625 C 3 -2.113281 3.015625 -1.757812 3.046875 -1.5 C 3.078125 -1.238281 3.144531 -1.035156 3.25 -0.890625 C 3.351562 -0.753906 3.492188 -0.660156 3.671875 -0.609375 C 3.859375 -0.566406 4.097656 -0.539062 4.390625 -0.53125 L 4.390625 0 L 0.40625 0 L 0.40625 -0.53125 C 0.738281 -0.539062 1.003906 -0.570312 1.203125 -0.625 C 1.398438 -0.675781 1.554688 -0.769531 1.671875 -0.90625 C 1.785156 -1.039062 1.859375 -1.226562 1.890625 -1.46875 C 1.929688 -1.71875 1.953125 -2.050781 1.953125 -2.46875 L 1.953125 -7.875 C 1.953125 -8.25 1.929688 -8.554688 1.890625 -8.796875 C 1.859375 -9.046875 1.789062 -9.242188 1.6875 -9.390625 C 1.59375 -9.535156 1.453125 -9.632812 1.265625 -9.6875 C 1.085938 -9.75 0.84375 -9.789062 0.53125 -9.8125 L 0.53125 -10.34375 L 4.28125 -10.34375 L 9.703125 -2.578125 L 9.75 -2.578125 L 9.75 -7.78125 C 9.75 -8.21875 9.734375 -8.566406 9.703125 -8.828125 C 9.671875 -9.097656 9.601562 -9.300781 9.5 -9.4375 C 9.40625 -9.582031 9.265625 -9.675781 9.078125 -9.71875 C 8.890625 -9.769531 8.648438 -9.800781 8.359375 -9.8125 L 8.359375 -10.34375 L 12.34375 -10.34375 L 12.34375 -9.8125 C 12.019531 -9.800781 11.753906 -9.769531 11.546875 -9.71875 C 11.347656 -9.664062 11.191406 -9.570312 11.078125 -9.4375 C 10.960938 -9.3125 10.882812 -9.125 10.84375 -8.875 C 10.8125 -8.625 10.796875 -8.289062 10.796875 -7.875 L 10.796875 0.140625 Z M 9 0.140625 "/></g></g></g></svg>