<svg xmlns="http://www.w3.org/2000/svg" xmlns:xlink="http://www.w3.org/1999/xlink" width="40" zoomAndPan="magnify" viewBox="0 0 30 30.000001" height="40" preserveAspectRatio="xMidYMid meet" version="1.0"><defs><g/><clipPath id="06ef8c1b13"><path d="M 3.972656 6.179688 L 23.949219 6.179688 L 23.949219 26.15625 L 3.972656 26.15625 Z M 3.972656 6.179688 " clip-rule="nonzero"/></clipPath><clipPath id="477498b82c"><path d="M 13.960938 6.179688 C 8.445312 6.179688 3.972656 10.652344 3.972656 16.167969 C 3.972656 21.683594 8.445312 26.15625 13.960938 26.15625 C 19.476562 26.15625 23.949219 21.683594 23.949219 16.167969 C 23.949219 10.652344 19.476562 6.179688 13.960938 6.179688 Z M 13.960938 6.179688 " clip-rule="nonzero"/></clipPath><clipPath id="9a3d8fda19"><path d="M 19.105469 2 L 25 2 L 25 16.195312 L 19.105469 16.195312 Z M 19.105469 2 " clip-rule="nonzero"/></clipPath><clipPath id="f4acdfcf9a"><path d="M 25 0 L 26.570312 0 L 26.570312 2 L 25 2 Z M 25 0 " clip-rule="nonzero"/></clipPath><clipPath id="f7aa997bb9"><path d="M 3.132812 15.074219 L 7.6875 15.074219 L 7.6875 27 L 3.132812 27 Z M 3.132812 15.074219 " clip-rule="nonzero"/></clipPath></defs><g clip-path="url(#06ef8c1b13)"><g clip-path="url(#477498b82c)"><path fill="#eeb30d" d="M 3.972656 6.179688 L 23.949219 6.179688 L 23.949219 26.15625 L 3.972656 26.15625 Z M 3.972656 6.179688 " fill-opacity="1" fill-rule="nonzero"/></g></g><path fill="#ffde59" d="M 24.429688 3.503906 L 23.328125 3.503906 L 23.328125 2.402344 L 24.429688 2.402344 L 24.429688 3.503906 " fill-opacity="1" fill-rule="nonzero"/><path fill="#ffde59" d="M 24.171875 5.707031 L 23.328125 5.707031 L 23.328125 4.867188 L 24.171875 4.867188 L 24.171875 5.707031 " fill-opacity="1" fill-rule="nonzero"/><g clip-path="url(#9a3d8fda19)"><path fill="#ffde59" d="M 20.964844 4.347656 L 20.964844 3.503906 L 21.808594 3.503906 L 21.808594 4.347656 Z M 23.105469 8.28125 C 22.894531 8.121094 22.738281 7.851562 22.636719 7.476562 C 22.578125 7.265625 22.542969 6.859375 22.535156 6.257812 L 21.808594 6.257812 L 21.808594 5.15625 L 22.515625 5.15625 C 22.5 4.734375 22.460938 4.402344 22.40625 4.164062 C 22.324219 3.820312 22.167969 3.527344 21.9375 3.292969 C 21.707031 3.054688 21.425781 2.886719 21.085938 2.789062 C 20.75 2.691406 20.261719 2.640625 19.628906 2.640625 L 19.257812 2.640625 L 19.257812 4.324219 C 19.785156 4.324219 20.128906 4.355469 20.28125 4.417969 C 20.433594 4.480469 20.539062 4.570312 20.597656 4.6875 C 20.65625 4.804688 20.6875 5.039062 20.691406 5.394531 C 20.714844 6.507812 20.753906 7.230469 20.804688 7.5625 C 20.882812 8.039062 21.035156 8.433594 21.253906 8.742188 C 21.414062 8.957031 21.667969 9.179688 22.015625 9.40625 C 21.746094 9.558594 21.527344 9.738281 21.355469 9.941406 C 21.1875 10.148438 21.046875 10.394531 20.945312 10.6875 C 20.84375 10.984375 20.777344 11.375 20.753906 11.859375 C 20.71875 12.667969 20.699219 13.214844 20.695312 13.5 C 20.691406 13.789062 20.65625 13.992188 20.582031 14.109375 C 20.511719 14.230469 20.398438 14.320312 20.242188 14.382812 C 20.085938 14.449219 19.757812 14.480469 19.257812 14.480469 L 19.257812 16.167969 L 19.628906 16.167969 C 20.242188 16.167969 20.695312 16.125 20.980469 16.042969 C 21.40625 15.914062 21.730469 15.742188 21.953125 15.523438 C 22.171875 15.308594 22.324219 15.015625 22.40625 14.65625 C 22.488281 14.292969 22.53125 13.660156 22.53125 12.746094 C 22.53125 12.195312 22.546875 11.804688 22.585938 11.578125 C 22.636719 11.28125 22.726562 11.03125 22.847656 10.832031 C 22.972656 10.628906 23.121094 10.488281 23.296875 10.402344 C 23.46875 10.320312 23.726562 10.269531 24.070312 10.25 L 24.070312 8.558594 C 23.640625 8.535156 23.316406 8.445312 23.105469 8.28125 " fill-opacity="1" fill-rule="nonzero"/></g><g clip-path="url(#f4acdfcf9a)"><path fill="#ffde59" d="M 26.578125 1.367188 L 25.738281 1.367188 L 25.738281 0.523438 L 26.578125 0.523438 L 26.578125 1.367188 " fill-opacity="1" fill-rule="nonzero"/></g><path fill="#ffde59" d="M 22.359375 2.402344 L 20.785156 2.402344 L 20.785156 0.832031 L 22.359375 0.832031 L 22.359375 2.402344 " fill-opacity="1" fill-rule="nonzero"/><g clip-path="url(#f7aa997bb9)"><path fill="#393536" d="M 3.136719 21.652344 L 3.136719 20.191406 C 3.429688 20.175781 3.652344 20.132812 3.804688 20.058594 C 3.953125 19.984375 4.082031 19.863281 4.191406 19.691406 C 4.300781 19.515625 4.375 19.300781 4.417969 19.042969 C 4.449219 18.847656 4.464844 18.507812 4.464844 18.023438 C 4.464844 17.238281 4.5 16.6875 4.574219 16.378906 C 4.648438 16.066406 4.777344 15.820312 4.96875 15.628906 C 5.160156 15.441406 5.4375 15.292969 5.800781 15.183594 C 6.046875 15.109375 6.4375 15.074219 6.964844 15.074219 L 7.289062 15.074219 L 7.289062 16.527344 C 6.839844 16.527344 6.550781 16.554688 6.421875 16.605469 C 6.296875 16.65625 6.203125 16.730469 6.140625 16.835938 C 6.078125 16.9375 6.050781 17.117188 6.050781 17.367188 C 6.050781 17.625 6.03125 18.109375 5.996094 18.824219 C 5.972656 19.222656 5.921875 19.550781 5.835938 19.800781 C 5.753906 20.046875 5.644531 20.253906 5.511719 20.417969 C 5.378906 20.578125 5.179688 20.746094 4.90625 20.921875 C 5.148438 21.058594 5.34375 21.222656 5.492188 21.40625 C 5.644531 21.589844 5.761719 21.816406 5.84375 22.078125 C 5.925781 22.34375 5.976562 22.695312 6 23.136719 C 6.027344 23.8125 6.042969 24.242188 6.042969 24.429688 C 6.042969 24.695312 6.074219 24.882812 6.140625 24.988281 C 6.207031 25.09375 6.304688 25.171875 6.433594 25.226562 C 6.566406 25.28125 6.851562 25.308594 7.289062 25.308594 L 7.289062 26.769531 L 6.964844 26.769531 C 6.417969 26.769531 6 26.726562 5.710938 26.640625 C 5.417969 26.554688 5.171875 26.40625 4.972656 26.207031 C 4.769531 26.003906 4.636719 25.75 4.566406 25.453125 C 4.5 25.15625 4.464844 24.6875 4.464844 24.042969 C 4.464844 23.296875 4.433594 22.8125 4.367188 22.589844 C 4.277344 22.265625 4.144531 22.03125 3.964844 21.894531 C 3.785156 21.753906 3.507812 21.671875 3.136719 21.652344 " fill-opacity="1" fill-rule="nonzero"/></g><g fill="#000000" fill-opacity="1"><g transform="translate(8.597785, 19.116363)"><g><path d="M 1.625 -7.6875 C 1.625 -7.976562 1.609375 -8.210938 1.578125 -8.390625 C 1.546875 -8.578125 1.488281 -8.71875 1.40625 -8.8125 C 1.320312 -8.914062 1.203125 -8.988281 1.046875 -9.03125 C 0.898438 -9.070312 0.695312 -9.097656 0.4375 -9.109375 L 0.4375 -9.609375 L 4.640625 -9.609375 L 4.640625 -9.109375 C 4.378906 -9.097656 4.171875 -9.070312 4.015625 -9.03125 C 3.859375 -8.988281 3.738281 -8.914062 3.65625 -8.8125 C 3.570312 -8.707031 3.515625 -8.554688 3.484375 -8.359375 C 3.460938 -8.171875 3.453125 -7.921875 3.453125 -7.609375 L 3.453125 0.03125 C 3.453125 1.070312 3.1875 1.867188 2.65625 2.421875 C 2.125 2.972656 1.332031 3.25 0.28125 3.25 C -0.476562 3.25 -1.0625 3.117188 -1.46875 2.859375 C -1.882812 2.597656 -2.09375 2.269531 -2.09375 1.875 C -2.09375 1.632812 -2.015625 1.445312 -1.859375 1.3125 C -1.710938 1.1875 -1.523438 1.125 -1.296875 1.125 C -1.109375 1.125 -0.957031 1.171875 -0.84375 1.265625 C -0.726562 1.367188 -0.585938 1.554688 -0.421875 1.828125 C -0.253906 2.109375 -0.109375 2.289062 0.015625 2.375 C 0.148438 2.46875 0.316406 2.515625 0.515625 2.515625 C 0.867188 2.515625 1.140625 2.316406 1.328125 1.921875 C 1.523438 1.535156 1.625 0.988281 1.625 0.28125 Z M 1.625 -7.6875 "/></g></g></g><g fill="#000000" fill-opacity="1"><g transform="translate(13.678565, 19.116363)"><g><path d="M 8.359375 0.125 L 2.828125 -7.75 L 2.78125 -7.75 L 2.78125 -2.390625 C 2.78125 -1.972656 2.796875 -1.640625 2.828125 -1.390625 C 2.859375 -1.148438 2.921875 -0.960938 3.015625 -0.828125 C 3.109375 -0.703125 3.238281 -0.617188 3.40625 -0.578125 C 3.582031 -0.535156 3.804688 -0.507812 4.078125 -0.5 L 4.078125 0 L 0.375 0 L 0.375 -0.5 C 0.6875 -0.507812 0.929688 -0.535156 1.109375 -0.578125 C 1.296875 -0.628906 1.441406 -0.71875 1.546875 -0.84375 C 1.648438 -0.96875 1.71875 -1.140625 1.75 -1.359375 C 1.789062 -1.585938 1.8125 -1.898438 1.8125 -2.296875 L 1.8125 -7.3125 C 1.8125 -7.664062 1.789062 -7.957031 1.75 -8.1875 C 1.71875 -8.414062 1.65625 -8.59375 1.5625 -8.71875 C 1.476562 -8.851562 1.347656 -8.945312 1.171875 -9 C 1.003906 -9.0625 0.78125 -9.097656 0.5 -9.109375 L 0.5 -9.609375 L 3.984375 -9.609375 L 9.015625 -2.390625 L 9.0625 -2.390625 L 9.0625 -7.234375 C 9.0625 -7.640625 9.046875 -7.960938 9.015625 -8.203125 C 8.984375 -8.453125 8.921875 -8.640625 8.828125 -8.765625 C 8.734375 -8.898438 8.597656 -8.988281 8.421875 -9.03125 C 8.253906 -9.070312 8.035156 -9.097656 7.765625 -9.109375 L 7.765625 -9.609375 L 11.46875 -9.609375 L 11.46875 -9.109375 C 11.164062 -9.097656 10.921875 -9.070312 10.734375 -9.03125 C 10.546875 -8.988281 10.398438 -8.90625 10.296875 -8.78125 C 10.191406 -8.65625 10.117188 -8.472656 10.078125 -8.234375 C 10.046875 -8.003906 10.03125 -7.695312 10.03125 -7.3125 L 10.03125 0.125 Z M 8.359375 0.125 "/></g></g></g></svg>